<svg width="400" height="200" viewBox="0 0 400 200" fill="none" xmlns="http://www.w3.org/2000/svg">
  <rect width="400" height="200" fill="url(#gradient2)"/>
  <defs>
    <linearGradient id="gradient2" x1="0%" y1="0%" x2="100%" y2="100%">
      <stop offset="0%" style="stop-color:#11998e;stop-opacity:1" />
      <stop offset="100%" style="stop-color:#38ef7d;stop-opacity:1" />
    </linearGradient>
  </defs>
  <!-- Thought bubble and person representing mood -->
  <g opacity="0.9">
    <!-- Person silhouette -->
    <circle cx="150" cy="140" r="25" fill="#2D1B69" opacity="0.8"/>
    <rect x="125" y="165" width="50" height="35" rx="10" fill="#2D1B69" opacity="0.8"/>
    <!-- Thought bubble -->
    <ellipse cx="220" cy="100" rx="60" ry="40" fill="white" opacity="0.8"/>
    <circle cx="190" cy="130" r="8" fill="white" opacity="0.6"/>
    <circle cx="180" cy="140" r="5" fill="white" opacity="0.4"/>
    <!-- Mood indicators inside bubble -->
    <path d="M200 85c0-8 6-14 14-14s14 6 14 14-6 14-14 14-14-6-14-14z" fill="#ff6b6b" opacity="0.7"/>
    <path d="M230 95c0-6 4-10 10-10s10 4 10 10-4 10-10 10-10-4-10-10z" fill="#4ecdc4" opacity="0.7"/>
    <path d="M210 110c0-4 3-7 7-7s7 3 7 7-3 7-7 7-7-3-7-7z" fill="#45b7d1" opacity="0.7"/>
    <!-- Brain/heart connection -->
    <path d="M290 120l15 10-15 10v-7h-20v-6h20v-7z" fill="white" opacity="0.6"/>
    <path d="M320 125c8 0 15 7 15 15s-7 15-15 15-15-7-15-15 7-15 15-15z" fill="#ff9ff3" opacity="0.8"/>
  </g>
</svg>