<svg width="400" height="200" viewBox="0 0 400 200" fill="none" xmlns="http://www.w3.org/2000/svg">
  <rect width="400" height="200" fill="url(#gradient3)"/>
  <defs>
    <linearGradient id="gradient3" x1="0%" y1="0%" x2="100%" y2="100%">
      <stop offset="0%" style="stop-color:#ffecd2;stop-opacity:1" />
      <stop offset="100%" style="stop-color:#fcb69f;stop-opacity:1" />
    </linearGradient>
  </defs>
  <!-- Heart and brain connection representing emotional wellness -->
  <g opacity="0.9">
    <!-- Brain -->
    <circle cx="150" cy="100" r="35" fill="#2D1B69" opacity="0.8"/>
    <path d="M130 90c10-10 30-10 40 0s10 30 0 40-30 10-40 0-10-30 0-40z" fill="none" stroke="white" stroke-width="3" opacity="0.6"/>
    <!-- Heart -->
    <path d="M250 130c0-20 20-30 35-20s35 0 35 20c0 15-35 50-35 50s-35-35-35-50z" fill="#ff6b8a" opacity="0.8"/>
    <!-- Connection line with sparkles -->
    <path d="M185 110l45 10" stroke="white" stroke-width="3" opacity="0.7"/>
    <!-- Sparkles -->
    <g fill="white" opacity="0.8">
      <path d="M200 90l2 6 6 2-6 2-2 6-2-6-6-2 6-2z"/>
      <path d="M220 75l1.5 4.5 4.5 1.5-4.5 1.5-1.5 4.5-1.5-4.5-4.5-1.5 4.5-1.5z"/>
      <path d="M310 110l2 6 6 2-6 2-2 6-2-6-6-2 6-2z"/>
    </g>
    <!-- Wellness indicators -->
    <circle cx="120" cy="150" r="8" fill="#4ecdc4" opacity="0.7"/>
    <circle cx="140" cy="160" r="6" fill="#45b7d1" opacity="0.7"/>
    <circle cx="320" cy="140" r="10" fill="#feca57" opacity="0.7"/>
    <circle cx="340" cy="160" r="7" fill="#ff9ff3" opacity="0.7"/>
  </g>
</svg>